<?xml version="1.0" encoding="utf-8"?>
<!-- Generator: Adobe Illustrator 23.1.0, SVG Export Plug-In . SVG Version: 6.00 Build 0)  -->
<svg version="1.1" id="Layer_1" xmlns="http://www.w3.org/2000/svg" xmlns:xlink="http://www.w3.org/1999/xlink" x="0px" y="0px"
	 viewBox="276 772 2000 496" style="enable-background:new 0 0 2500 2000;" xml:space="preserve">
<style type="text/css">
	.st0{fill:#FFFFFF;}
	.st1{fill:#FF6501;}
	.st2{fill:#003365;}
</style>
<rect class="st0" width="2500" height="2000"/>
<g>
	<g>
		<g>
			<g>
				<path class="st1" d="M706.99,1202.13H337.29V797.87l254.17,1.09L706.99,937.6V1202.13z M364.44,1174.98h315.39v-227.1
					L579.2,826.11l-214.76-1.09V1174.98z"/>
			</g>
		</g>
		<g>
			<g>
				<rect x="408.95" y="974.63" class="st2" width="225.33" height="18.34"/>
			</g>
			<g>
				<rect x="408.95" y="1024.32" class="st2" width="180.14" height="18.34"/>
			</g>
			<g>
				<rect x="408.95" y="1074" class="st2" width="144.76" height="18.34"/>
			</g>
			<g>
				<rect x="408.95" y="1123.69" class="st2" width="86.9" height="18.34"/>
			</g>
		</g>
		<g>
			<path class="st1" d="M465.93,919.75H349.48V803.3h116.45V919.75z M365.78,903.45h83.86v-83.86h-83.86V903.45z"/>
		</g>
		<polygon class="st2" points="426.52,861.52 408.95,871.66 391.39,881.8 391.39,861.52 391.39,841.24 408.95,851.38 		"/>
	</g>
	<g>
		<g>
			<path class="st2" d="M806.32,1069.99c1.9,1.36,5.08,2.85,9.56,4.47c4.48,1.63,9.63,2.44,15.46,2.44c5.69,0,10.24-0.98,13.63-2.95
				c3.39-1.96,5.97-4.98,7.73-9.05c1.76-4.07,2.91-9.12,3.46-15.15c0.54-6.03,0.81-13.12,0.81-21.25v-73.22h28.07v73.22
				c0,10.98-0.58,20.98-1.73,30c-1.15,9.02-3.59,16.71-7.32,23.08c-3.73,6.37-9.12,11.32-16.17,14.85
				c-7.05,3.52-16.54,5.29-28.47,5.29c-12.2,0-22.64-2.98-31.32-8.95L806.32,1069.99z"/>
			<path class="st2" d="M895.41,1099.48l56.95-144.4h22.78l56.74,144.4h-29.69l-13.22-36h-50.64l-13.22,36H895.41z M963.74,985.38
				L943,1043.76h40.88L963.74,985.38z"/>
			<path class="st2" d="M1038.79,1026.27c0-8.81,1.56-17.52,4.68-26.13c3.12-8.61,7.63-16.3,13.53-23.08
				c5.9-6.78,13.12-12.27,21.66-16.47c8.54-4.2,18.3-6.3,29.29-6.3c12.88,0,24.03,2.92,33.46,8.75
				c9.42,5.83,16.37,13.42,20.85,22.78l-21.56,14.85c-1.63-4.07-3.73-7.49-6.31-10.27c-2.58-2.78-5.39-4.98-8.44-6.61
				c-3.05-1.63-6.2-2.81-9.46-3.56c-3.26-0.74-6.37-1.12-9.36-1.12c-6.65,0-12.48,1.42-17.49,4.27c-5.02,2.85-9.19,6.54-12.51,11.09
				c-3.32,4.54-5.83,9.7-7.53,15.46c-1.7,5.77-2.54,11.49-2.54,17.19c0,6.37,0.98,12.51,2.95,18.41c1.96,5.9,4.74,11.08,8.34,15.56
				c3.59,4.48,7.9,8.07,12.91,10.78c5.01,2.71,10.51,4.07,16.47,4.07c3.12,0,6.31-0.41,9.56-1.22c3.26-0.81,6.41-2.1,9.46-3.86
				c3.05-1.76,5.86-4.03,8.44-6.81c2.57-2.78,4.68-6.13,6.3-10.07l22.98,13.22c-2.17,5.43-5.32,10.2-9.46,14.34
				c-4.14,4.14-8.85,7.63-14.13,10.47s-10.85,5.02-16.68,6.51c-5.83,1.49-11.59,2.24-17.29,2.24c-10.04,0-19.22-2.17-27.56-6.51
				c-8.34-4.34-15.53-10-21.56-16.98c-6.03-6.98-10.71-14.91-14.03-23.8C1040.45,1044.54,1038.79,1035.49,1038.79,1026.27z"/>
			<path class="st2" d="M1283.87,1074.87v24.61H1183.6v-144.4h98.44v24.61h-70.37v34.78h60.81v22.78h-60.81v37.63H1283.87z"/>
			<path class="st2" d="M1471.39,1062.26c0,6.1-1.22,11.46-3.66,16.07c-2.44,4.61-5.8,8.48-10.07,11.59
				c-4.27,3.12-9.22,5.49-14.85,7.12c-5.63,1.63-11.63,2.44-18,2.44h-69.76v-144.4h77.29c5.01,0,9.56,1.09,13.63,3.25
				c4.07,2.17,7.53,4.98,10.37,8.44c2.85,3.46,5.05,7.39,6.61,11.8c1.56,4.41,2.34,8.85,2.34,13.32c0,7.05-1.76,13.66-5.29,19.83
				c-3.53,6.17-8.68,10.75-15.46,13.73c8.27,2.44,14.81,6.81,19.63,13.12C1468.98,1044.88,1471.39,1052.78,1471.39,1062.26z
				 M1383.12,979.08v36.41h37.42c4.74,0,8.78-1.63,12.1-4.88c3.32-3.25,4.98-7.73,4.98-13.42c0-5.56-1.53-9.97-4.58-13.22
				c-3.05-3.25-6.81-4.88-11.29-4.88H1383.12z M1443.12,1056.98c0-2.57-0.44-5.05-1.32-7.42c-0.88-2.37-2.07-4.44-3.56-6.2
				c-1.49-1.76-3.25-3.15-5.29-4.17c-2.03-1.02-4.27-1.53-6.71-1.53h-43.12v38.03h41.69c2.58,0,4.98-0.47,7.22-1.42
				c2.24-0.95,4.17-2.27,5.79-3.97c1.63-1.69,2.92-3.69,3.86-6C1442.64,1061.99,1443.12,1059.55,1443.12,1056.98z"/>
			<path class="st2" d="M1593.62,1074.87v24.61h-100.27v-144.4h98.44v24.61h-70.37v34.78h60.81v22.78h-60.81v37.63H1593.62z"/>
			<path class="st2" d="M1644.26,1006.94v92.54h-28.07v-144.4h21.76l75.25,94.78v-94.57h28.07v144.2h-22.78L1644.26,1006.94z"/>
			<path class="st2" d="M1857.61,992.91c-0.95-0.95-2.68-2.24-5.19-3.86c-2.51-1.63-5.56-3.22-9.15-4.78
				c-3.59-1.56-7.49-2.88-11.69-3.97c-4.2-1.08-8.47-1.63-12.81-1.63c-7.73,0-13.49,1.42-17.29,4.27c-3.8,2.85-5.69,6.85-5.69,12
				c0,2.98,0.71,5.46,2.14,7.42c1.42,1.97,3.49,3.7,6.2,5.19c2.71,1.49,6.13,2.85,10.27,4.07c4.14,1.22,8.92,2.51,14.34,3.86
				c7.05,1.9,13.45,3.93,19.22,6.1c5.76,2.17,10.64,4.88,14.64,8.14c4,3.25,7.08,7.15,9.25,11.7c2.17,4.54,3.25,10.14,3.25,16.78
				c0,7.73-1.46,14.34-4.37,19.83c-2.92,5.49-6.81,9.93-11.7,13.32c-4.88,3.39-10.58,5.87-17.08,7.42
				c-6.51,1.56-13.29,2.34-20.34,2.34c-10.85,0-21.56-1.63-32.13-4.88c-10.58-3.25-20.07-7.86-28.47-13.83l12.41-24.2
				c1.22,1.22,3.42,2.82,6.61,4.78c3.18,1.97,6.94,3.93,11.29,5.9c4.34,1.97,9.15,3.63,14.44,4.98c5.29,1.36,10.71,2.03,16.27,2.03
				c15.46,0,23.19-4.95,23.19-14.85c0-3.25-0.88-5.96-2.64-8.14c-1.77-2.17-4.27-4.07-7.53-5.69c-3.26-1.63-7.19-3.12-11.8-4.47
				c-4.61-1.35-9.76-2.78-15.46-4.27c-6.91-1.9-12.91-3.97-18-6.2c-5.08-2.24-9.32-4.85-12.71-7.83c-3.39-2.98-5.93-6.51-7.63-10.58
				c-1.7-4.07-2.54-8.88-2.54-14.44c0-7.32,1.35-13.83,4.07-19.52c2.71-5.69,6.47-10.44,11.29-14.24c4.81-3.79,10.4-6.68,16.78-8.64
				c6.37-1.96,13.22-2.95,20.54-2.95c10.17,0,19.52,1.6,28.07,4.78c8.54,3.19,16,6.95,22.37,11.29L1857.61,992.91z"/>
			<path class="st2" d="M1956.46,1100.5c-10.17,0-19.46-2.07-27.86-6.2c-8.41-4.13-15.63-9.63-21.66-16.47
				c-6.03-6.85-10.68-14.68-13.93-23.49c-3.25-8.81-4.88-17.83-4.88-27.05c0-9.63,1.73-18.84,5.19-27.66
				c3.46-8.81,8.27-16.61,14.44-23.39c6.17-6.78,13.46-12.17,21.87-16.17c8.4-4,17.56-6,27.46-6c10.17,0,19.46,2.14,27.86,6.41
				c8.41,4.27,15.59,9.86,21.56,16.78c5.97,6.91,10.58,14.78,13.83,23.59c3.25,8.82,4.88,17.76,4.88,26.85
				c0,9.63-1.73,18.81-5.19,27.56c-3.46,8.74-8.24,16.47-14.34,23.19c-6.1,6.71-13.36,12.07-21.76,16.07
				C1975.51,1098.5,1966.35,1100.5,1956.46,1100.5z M1916.39,1027.28c0,6.24,0.91,12.27,2.74,18.1c1.83,5.83,4.48,10.98,7.93,15.46
				c3.46,4.47,7.69,8.07,12.71,10.78c5.01,2.71,10.71,4.07,17.08,4.07c6.51,0,12.23-1.39,17.19-4.17
				c4.95-2.78,9.12-6.47,12.51-11.08c3.39-4.61,5.96-9.79,7.73-15.56c1.76-5.76,2.64-11.62,2.64-17.59c0-6.24-0.95-12.27-2.85-18.1
				c-1.9-5.83-4.58-10.98-8.03-15.46c-3.46-4.47-7.66-8.03-12.61-10.68c-4.95-2.64-10.54-3.97-16.78-3.97
				c-6.51,0-12.24,1.39-17.19,4.17c-4.95,2.78-9.15,6.44-12.61,10.98c-3.46,4.54-6.07,9.7-7.83,15.46
				C1917.27,1015.45,1916.39,1021.32,1916.39,1027.28z"/>
			<path class="st2" d="M2075.03,1006.94v92.54h-28.07v-144.4h21.76l75.25,94.78v-94.57h28.07v144.2h-22.78L2075.03,1006.94z"/>
		</g>
		<g>
			<path class="st1" d="M806.46,1183.61l6.83-0.6c0.32,2.74,1.08,4.98,2.26,6.74c1.18,1.76,3.02,3.17,5.51,4.26
				c2.49,1.08,5.29,1.62,8.4,1.62c2.76,0,5.2-0.41,7.32-1.23c2.11-0.82,3.69-1.95,4.72-3.38c1.03-1.43,1.55-2.99,1.55-4.69
				c0-1.72-0.5-3.22-1.49-4.5c-1-1.28-2.64-2.36-4.93-3.23c-1.47-0.57-4.72-1.46-9.74-2.67c-5.03-1.21-8.55-2.35-10.57-3.42
				c-2.61-1.37-4.56-3.07-5.84-5.1c-1.28-2.03-1.92-4.3-1.92-6.81c0-2.76,0.78-5.34,2.35-7.75c1.57-2.4,3.86-4.22,6.87-5.47
				c3.01-1.24,6.36-1.87,10.04-1.87c4.06,0,7.64,0.65,10.73,1.96c3.1,1.31,5.48,3.23,7.15,5.77c1.67,2.54,2.56,5.41,2.69,8.62
				l-6.95,0.52c-0.37-3.46-1.64-6.07-3.79-7.84c-2.15-1.77-5.33-2.65-9.54-2.65c-4.38,0-7.57,0.8-9.58,2.41
				c-2,1.61-3.01,3.54-3.01,5.81c0,1.97,0.71,3.58,2.13,4.85c1.39,1.27,5.03,2.57,10.92,3.9c5.89,1.33,9.93,2.5,12.12,3.49
				c3.19,1.47,5.54,3.33,7.06,5.58c1.52,2.25,2.28,4.85,2.28,7.78c0,2.91-0.83,5.66-2.5,8.23c-1.67,2.58-4.06,4.58-7.19,6.01
				c-3.12,1.43-6.64,2.15-10.55,2.15c-4.95,0-9.1-0.72-12.45-2.17c-3.35-1.44-5.97-3.62-7.88-6.52
				C807.56,1190.55,806.56,1187.27,806.46,1183.61z"/>
			<path class="st1" d="M861.83,1201.2v-54.74h39.58v6.46h-32.33v16.76h30.28v6.42h-30.28v18.63h33.6v6.46H861.83z"/>
			<path class="st1" d="M914.55,1201.2v-54.74h24.27c4.88,0,8.59,0.49,11.13,1.48c2.54,0.98,4.57,2.72,6.09,5.21
				c1.52,2.49,2.28,5.24,2.28,8.25c0,3.88-1.26,7.16-3.77,9.82c-2.51,2.66-6.4,4.36-11.65,5.08c1.92,0.92,3.37,1.83,4.37,2.73
				c2.11,1.94,4.12,4.37,6.01,7.28l9.52,14.9h-9.11l-7.24-11.39c-2.12-3.29-3.86-5.8-5.23-7.54c-1.37-1.74-2.59-2.96-3.68-3.66
				c-1.08-0.7-2.18-1.18-3.3-1.46c-0.82-0.17-2.17-0.26-4.03-0.26h-8.4v24.31H914.55z M921.8,1170.62h15.57
				c3.31,0,5.9-0.34,7.77-1.03c1.87-0.68,3.29-1.78,4.26-3.29c0.97-1.51,1.46-3.14,1.46-4.91c0-2.59-0.94-4.72-2.82-6.38
				c-1.88-1.67-4.85-2.5-8.91-2.5H921.8V1170.62z"/>
			<path class="st1" d="M985.68,1201.2l-21.21-54.74h7.84l14.23,39.76c1.14,3.19,2.1,6.17,2.88,8.96c0.84-2.99,1.83-5.97,2.95-8.96
				l14.78-39.76h7.39l-21.43,54.74H985.68z"/>
			<path class="st1" d="M1024.03,1201.2v-54.74h7.24v54.74H1024.03z"/>
			<path class="st1" d="M1084.86,1182.01l7.24,1.83c-1.52,5.95-4.25,10.49-8.2,13.61c-3.95,3.12-8.77,4.69-14.47,4.69
				c-5.9,0-10.7-1.2-14.39-3.6c-3.7-2.4-6.51-5.88-8.44-10.44c-1.93-4.56-2.89-9.45-2.89-14.67c0-5.7,1.09-10.67,3.27-14.92
				c2.18-4.24,5.28-7.47,9.3-9.67c4.02-2.2,8.44-3.3,13.27-3.3c5.48,0,10.08,1.39,13.81,4.18c3.73,2.79,6.33,6.71,7.8,11.76
				l-7.13,1.68c-1.27-3.98-3.11-6.88-5.52-8.7c-2.42-1.82-5.45-2.72-9.11-2.72c-4.21,0-7.72,1.01-10.55,3.02
				c-2.83,2.02-4.81,4.72-5.95,8.12c-1.15,3.4-1.72,6.9-1.72,10.51c0,4.65,0.68,8.72,2.03,12.19c1.35,3.47,3.47,6.07,6.33,7.78
				s5.96,2.58,9.3,2.58c4.06,0,7.49-1.17,10.3-3.51C1081.96,1190.09,1083.86,1186.61,1084.86,1182.01z"/>
			<path class="st1" d="M1102.93,1201.2v-54.74h39.58v6.46h-32.33v16.76h30.28v6.42h-30.28v18.63h33.6v6.46H1102.93z"/>
			<path class="st1" d="M1155.47,1201.2v-54.74h7.43l28.75,42.97v-42.97h6.94v54.74h-7.43l-28.75-43.01v43.01H1155.47z"/>
			<path class="st1" d="M1210.32,1174.54c0-9.09,2.44-16.2,7.32-21.34c4.88-5.14,11.18-7.71,18.89-7.71c5.05,0,9.61,1.21,13.66,3.62
				c4.06,2.42,7.15,5.78,9.28,10.1c2.13,4.32,3.19,9.22,3.19,14.69c0,5.55-1.12,10.52-3.36,14.9c-2.24,4.38-5.42,7.7-9.52,9.95
				c-4.11,2.25-8.54,3.38-13.29,3.38c-5.15,0-9.76-1.24-13.81-3.73c-4.06-2.49-7.13-5.89-9.22-10.19
				C1211.37,1183.9,1210.32,1179.35,1210.32,1174.54z M1217.79,1174.65c0,6.6,1.77,11.79,5.32,15.59c3.55,3.8,8,5.69,13.35,5.69
				c5.45,0,9.94-1.92,13.46-5.75c3.52-3.83,5.28-9.27,5.28-16.32c0-4.45-0.75-8.34-2.26-11.67c-1.51-3.32-3.71-5.9-6.61-7.73
				c-2.9-1.83-6.16-2.74-9.76-2.74c-5.13,0-9.54,1.76-13.24,5.28C1219.63,1160.53,1217.79,1166.41,1217.79,1174.65z"/>
			<path class="st1" d="M1283.32,1201.2l-14.52-54.74h7.43l8.33,35.88c0.9,3.76,1.67,7.49,2.32,11.2c1.39-5.85,2.21-9.22,2.46-10.12
				l10.42-36.96h8.74l7.84,27.7c1.97,6.87,3.39,13.33,4.26,19.38c0.7-3.46,1.61-7.43,2.72-11.91l8.59-35.17h7.28l-15.01,54.74h-6.98
				l-11.54-41.7c-0.97-3.48-1.54-5.62-1.72-6.42c-0.57,2.51-1.11,4.65-1.61,6.42l-11.61,41.7H1283.32z"/>
			<path class="st1" d="M1370.62,1201.2v-54.74h7.43l28.75,42.97v-42.97h6.94v54.74h-7.43l-28.75-43.01v43.01H1370.62z"/>
			<path class="st1" d="M1427.82,1201.2v-54.74h39.58v6.46h-32.33v16.76h30.28v6.42h-30.28v18.63h33.6v6.46H1427.82z"/>
			<path class="st1" d="M1489.99,1201.2l-14.52-54.74h7.43l8.33,35.88c0.9,3.76,1.67,7.49,2.32,11.2c1.39-5.85,2.21-9.22,2.46-10.12
				l10.42-36.96h8.74l7.84,27.7c1.97,6.87,3.39,13.33,4.26,19.38c0.7-3.46,1.61-7.43,2.73-11.91l8.59-35.17h7.28l-15.01,54.74h-6.98
				l-11.54-41.7c-0.97-3.48-1.54-5.62-1.72-6.42c-0.57,2.51-1.11,4.65-1.61,6.42l-11.61,41.7H1489.99z"/>
			<path class="st1" d="M1551.9,1183.61l6.83-0.6c0.32,2.74,1.08,4.98,2.26,6.74c1.18,1.76,3.02,3.17,5.51,4.26
				c2.49,1.08,5.29,1.62,8.4,1.62c2.76,0,5.2-0.41,7.32-1.23c2.11-0.82,3.69-1.95,4.72-3.38c1.03-1.43,1.55-2.99,1.55-4.69
				c0-1.72-0.5-3.22-1.49-4.5c-1-1.28-2.64-2.36-4.93-3.23c-1.47-0.57-4.72-1.46-9.74-2.67c-5.03-1.21-8.55-2.35-10.57-3.42
				c-2.61-1.37-4.56-3.07-5.84-5.1c-1.28-2.03-1.92-4.3-1.92-6.81c0-2.76,0.78-5.34,2.35-7.75c1.57-2.4,3.86-4.22,6.87-5.47
				c3.01-1.24,6.36-1.87,10.04-1.87c4.06,0,7.64,0.65,10.73,1.96c3.1,1.31,5.48,3.23,7.15,5.77c1.67,2.54,2.56,5.41,2.69,8.62
				l-6.95,0.52c-0.37-3.46-1.64-6.07-3.79-7.84c-2.15-1.77-5.33-2.65-9.54-2.65c-4.38,0-7.57,0.8-9.58,2.41
				c-2,1.61-3.01,3.54-3.01,5.81c0,1.97,0.71,3.58,2.13,4.85c1.39,1.27,5.03,2.57,10.92,3.9c5.89,1.33,9.93,2.5,12.12,3.49
				c3.19,1.47,5.54,3.33,7.06,5.58c1.52,2.25,2.28,4.85,2.28,7.78c0,2.91-0.83,5.66-2.5,8.23c-1.67,2.58-4.06,4.58-7.19,6.01
				c-3.12,1.43-6.64,2.15-10.55,2.15c-4.95,0-9.1-0.72-12.45-2.17c-3.35-1.44-5.97-3.62-7.88-6.52
				C1553,1190.55,1551.99,1187.27,1551.9,1183.61z"/>
			<path class="st1" d="M1627.92,1174.54c0-9.09,2.44-16.2,7.32-21.34c4.88-5.14,11.18-7.71,18.89-7.71c5.05,0,9.61,1.21,13.66,3.62
				c4.06,2.42,7.15,5.78,9.28,10.1c2.13,4.32,3.19,9.22,3.19,14.69c0,5.55-1.12,10.52-3.36,14.9c-2.24,4.38-5.42,7.7-9.52,9.95
				c-4.11,2.25-8.54,3.38-13.29,3.38c-5.15,0-9.76-1.24-13.81-3.73c-4.06-2.49-7.13-5.89-9.22-10.19
				C1628.97,1183.9,1627.92,1179.35,1627.92,1174.54z M1635.39,1174.65c0,6.6,1.77,11.79,5.32,15.59c3.55,3.8,8,5.69,13.35,5.69
				c5.45,0,9.94-1.92,13.46-5.75c3.52-3.83,5.28-9.27,5.28-16.32c0-4.45-0.75-8.34-2.26-11.67c-1.51-3.32-3.71-5.9-6.61-7.73
				c-2.9-1.83-6.16-2.74-9.76-2.74c-5.13,0-9.54,1.76-13.24,5.28C1637.24,1160.53,1635.39,1166.41,1635.39,1174.65z"/>
			<path class="st1" d="M1691.29,1201.2v-54.74h7.43l28.75,42.97v-42.97h6.94v54.74h-7.43l-28.75-43.01v43.01H1691.29z"/>
			<path class="st1" d="M1783.89,1201.2v-48.28h-18.03v-6.46h43.39v6.46h-18.11v48.28H1783.89z"/>
			<path class="st1" d="M1818.65,1201.2v-54.74h7.24v22.48h28.45v-22.48h7.24v54.74h-7.24v-25.8h-28.45v25.8H1818.65z"/>
			<path class="st1" d="M1875.55,1201.2v-54.74h39.58v6.46h-32.33v16.76h30.28v6.42h-30.28v18.63h33.6v6.46H1875.55z"/>
			<path class="st1" d="M1951.39,1201.2v-54.74h7.24v22.48h28.45v-22.48h7.24v54.74h-7.24v-25.8h-28.45v25.8H1951.39z"/>
			<path class="st1" d="M2005.95,1174.54c0-9.09,2.44-16.2,7.32-21.34c4.88-5.14,11.18-7.71,18.89-7.71c5.05,0,9.61,1.21,13.66,3.62
				c4.06,2.42,7.15,5.78,9.28,10.1c2.13,4.32,3.19,9.22,3.19,14.69c0,5.55-1.12,10.52-3.36,14.9c-2.24,4.38-5.42,7.7-9.52,9.95
				c-4.11,2.25-8.54,3.38-13.29,3.38c-5.15,0-9.76-1.24-13.81-3.73c-4.06-2.49-7.13-5.89-9.22-10.19
				C2006.99,1183.9,2005.95,1179.35,2005.95,1174.54z M2013.41,1174.65c0,6.6,1.77,11.79,5.32,15.59c3.55,3.8,8,5.69,13.35,5.69
				c5.45,0,9.94-1.92,13.46-5.75c3.52-3.83,5.28-9.27,5.28-16.32c0-4.45-0.75-8.34-2.26-11.67c-1.51-3.32-3.71-5.9-6.61-7.73
				c-2.9-1.83-6.16-2.74-9.76-2.74c-5.13,0-9.54,1.76-13.24,5.28C2015.26,1160.53,2013.41,1166.41,2013.41,1174.65z"/>
			<path class="st1" d="M2105.3,1146.46h7.24v31.62c0,5.5-0.62,9.87-1.87,13.1c-1.25,3.24-3.49,5.87-6.74,7.9
				c-3.25,2.03-7.51,3.04-12.79,3.04c-5.13,0-9.32-0.88-12.58-2.65s-5.59-4.32-6.98-7.67c-1.39-3.35-2.09-7.92-2.09-13.72v-31.62
				h7.24v31.59c0,4.75,0.44,8.26,1.33,10.51c0.88,2.25,2.4,3.99,4.56,5.21c2.15,1.22,4.78,1.83,7.9,1.83
				c5.33,0,9.12-1.21,11.39-3.62c2.27-2.41,3.4-7.06,3.4-13.93V1146.46z"/>
			<path class="st1" d="M2126.48,1201.2v-54.74h24.27c4.88,0,8.59,0.49,11.13,1.48c2.54,0.98,4.57,2.72,6.09,5.21
				c1.52,2.49,2.28,5.24,2.28,8.25c0,3.88-1.26,7.16-3.77,9.82c-2.51,2.66-6.4,4.36-11.65,5.08c1.92,0.92,3.37,1.83,4.37,2.73
				c2.11,1.94,4.12,4.37,6.01,7.28l9.52,14.9h-9.11l-7.24-11.39c-2.12-3.29-3.86-5.8-5.23-7.54c-1.37-1.74-2.59-2.96-3.68-3.66
				c-1.08-0.7-2.18-1.18-3.3-1.46c-0.82-0.17-2.17-0.26-4.03-0.26h-8.4v24.31H2126.48z M2133.72,1170.62h15.57
				c3.31,0,5.9-0.34,7.77-1.03c1.87-0.68,3.29-1.78,4.26-3.29c0.97-1.51,1.46-3.14,1.46-4.91c0-2.59-0.94-4.72-2.82-6.38
				c-1.88-1.67-4.85-2.5-8.91-2.5h-17.32V1170.62z"/>
		</g>
	</g>
</g>
</svg>
