<?xml version="1.0" encoding="UTF-8"?>
<!DOCTYPE svg PUBLIC "-//W3C//DTD SVG 1.1//EN" "http://www.w3.org/Graphics/SVG/1.1/DTD/svg11.dtd">
<svg xmlns="http://www.w3.org/2000/svg" version="1.1" width="166px" height="162px" style="shape-rendering:geometricPrecision; text-rendering:geometricPrecision; image-rendering:optimizeQuality; fill-rule:evenodd; clip-rule:evenodd" xmlns:xlink="http://www.w3.org/1999/xlink">
<g><path style="opacity:1" fill="#3e7c12" d="M 107.5,19.5 C 106.903,19.7352 106.57,20.2352 106.5,21C 110.7,30.4314 113.367,40.2647 114.5,50.5C 114.22,57.8584 112.553,64.8584 109.5,71.5C 103.925,72.4524 98.2586,72.7857 92.5,72.5C 73.7424,72.4152 55.7424,68.7486 38.5,61.5C 31.1722,56.3391 30.0056,50.0058 35,42.5C 41.8949,34.6061 49.7282,27.7727 58.5,22C 67.5,16.3333 76.5,10.6667 85.5,5C 87.0444,3.81288 88.7111,3.47954 90.5,4C 96.3623,9.03253 102.029,14.1992 107.5,19.5 Z"/></g>
<g><path style="opacity:1" fill="#2f6a03" d="M 107.5,19.5 C 119.583,28.7491 129.75,39.7491 138,52.5C 141.487,62.522 137.987,68.522 127.5,70.5C 121.529,71.2412 115.529,71.5745 109.5,71.5C 112.553,64.8584 114.22,57.8584 114.5,50.5C 113.367,40.2647 110.7,30.4314 106.5,21C 106.57,20.2352 106.903,19.7352 107.5,19.5 Z"/></g>
<g><path style="opacity:1" fill="#7c5848" d="M 38.5,61.5 C 55.7424,68.7486 73.7424,72.4152 92.5,72.5C 97.3054,73.4872 102.305,73.8205 107.5,73.5C 108.253,91.2374 106.086,108.571 101,125.5C 95.2871,136.266 88.1204,145.932 79.5,154.5C 64.1708,141.337 50.0041,127.004 37,111.5C 24.2436,94.4607 24.7436,77.7941 38.5,61.5 Z"/></g>
<g><path style="opacity:1" fill="#624610" d="M 127.5,70.5 C 135.154,88.4518 132.321,104.452 119,118.5C 107.5,131.333 95.3333,143.5 82.5,155C 81.2506,155.74 80.2506,155.573 79.5,154.5C 88.1204,145.932 95.2871,136.266 101,125.5C 106.086,108.571 108.253,91.2374 107.5,73.5C 102.305,73.8205 97.3054,73.4872 92.5,72.5C 98.2586,72.7857 103.925,72.4524 109.5,71.5C 115.529,71.5745 121.529,71.2412 127.5,70.5 Z"/></g>
</svg>
